<mxfile host="app.diagrams.net" agent="Mozilla/5.0 (Windows NT 10.0; Win64; x64) AppleWebKit/537.36 (KHTML, like Gecko) Chrome/131.0.0.0 Safari/537.36 Edg/131.0.0.0" version="25.0.1">
  <diagram name="Page-1" id="DCDBAm9GWgY4urhCUb0I">
    <mxGraphModel dx="1892" dy="1665" grid="1" gridSize="10" guides="1" tooltips="1" connect="1" arrows="1" fold="1" page="1" pageScale="1" pageWidth="850" pageHeight="1100" math="0" shadow="0">
      <root>
        <mxCell id="0" />
        <mxCell id="1" parent="0" />
        <mxCell id="CX06wlLxNlmrgXDIyItP-1" value="" style="edgeStyle=orthogonalEdgeStyle;rounded=0;orthogonalLoop=1;jettySize=auto;html=1;" edge="1" parent="1" source="CX06wlLxNlmrgXDIyItP-2">
          <mxGeometry relative="1" as="geometry">
            <mxPoint x="-589.9714285714286" y="-960" as="targetPoint" />
          </mxGeometry>
        </mxCell>
        <mxCell id="CX06wlLxNlmrgXDIyItP-2" value="&lt;font data-font-src=&quot;https://fonts.googleapis.com/css?family=Sarabun&quot; face=&quot;Sarabun&quot;&gt;Start&lt;/font&gt;" style="ellipse;whiteSpace=wrap;html=1;" vertex="1" parent="1">
          <mxGeometry x="-655.0000000000001" y="-1020" width="130" height="30" as="geometry" />
        </mxCell>
        <mxCell id="CX06wlLxNlmrgXDIyItP-3" value="" style="edgeStyle=orthogonalEdgeStyle;rounded=0;orthogonalLoop=1;jettySize=auto;html=1;" edge="1" parent="1" source="CX06wlLxNlmrgXDIyItP-4">
          <mxGeometry relative="1" as="geometry">
            <mxPoint x="-590" y="-820" as="targetPoint" />
          </mxGeometry>
        </mxCell>
        <mxCell id="CX06wlLxNlmrgXDIyItP-4" value="กำหนดตัวแปร sum" style="rounded=0;whiteSpace=wrap;html=1;" vertex="1" parent="1">
          <mxGeometry x="-670" y="-890" width="160" height="40" as="geometry" />
        </mxCell>
        <mxCell id="CX06wlLxNlmrgXDIyItP-43" value="" style="edgeStyle=orthogonalEdgeStyle;rounded=0;orthogonalLoop=1;jettySize=auto;html=1;" edge="1" parent="1" source="CX06wlLxNlmrgXDIyItP-12" target="CX06wlLxNlmrgXDIyItP-42">
          <mxGeometry relative="1" as="geometry" />
        </mxCell>
        <mxCell id="CX06wlLxNlmrgXDIyItP-12" value="กรอกค่าตัวแปร data" style="rounded=0;whiteSpace=wrap;html=1;shape=parallelogram;perimeter=parallelogramPerimeter;fixedSize=1;" vertex="1" parent="1">
          <mxGeometry x="-670" y="-820" width="160" height="40" as="geometry" />
        </mxCell>
        <mxCell id="CX06wlLxNlmrgXDIyItP-45" value="" style="edgeStyle=orthogonalEdgeStyle;rounded=0;orthogonalLoop=1;jettySize=auto;html=1;" edge="1" parent="1" source="CX06wlLxNlmrgXDIyItP-14" target="CX06wlLxNlmrgXDIyItP-21">
          <mxGeometry relative="1" as="geometry" />
        </mxCell>
        <mxCell id="CX06wlLxNlmrgXDIyItP-14" value="ปริ้นค่า sum" style="rounded=0;whiteSpace=wrap;html=1;shape=parallelogram;perimeter=parallelogramPerimeter;fixedSize=1;" vertex="1" parent="1">
          <mxGeometry x="-670" y="-650" width="160" height="40" as="geometry" />
        </mxCell>
        <mxCell id="CX06wlLxNlmrgXDIyItP-15" value="" style="edgeStyle=orthogonalEdgeStyle;rounded=0;orthogonalLoop=1;jettySize=auto;html=1;" edge="1" parent="1" source="CX06wlLxNlmrgXDIyItP-16">
          <mxGeometry relative="1" as="geometry">
            <mxPoint x="-297.5" y="-880" as="targetPoint" />
          </mxGeometry>
        </mxCell>
        <mxCell id="CX06wlLxNlmrgXDIyItP-16" value="Start cal" style="shape=process;whiteSpace=wrap;html=1;backgroundOutline=1;" vertex="1" parent="1">
          <mxGeometry x="-357.5" y="-970" width="120" height="50" as="geometry" />
        </mxCell>
        <mxCell id="CX06wlLxNlmrgXDIyItP-18" style="edgeStyle=orthogonalEdgeStyle;rounded=0;orthogonalLoop=1;jettySize=auto;html=1;entryX=0.5;entryY=0;entryDx=0;entryDy=0;" edge="1" parent="1" source="CX06wlLxNlmrgXDIyItP-19" target="CX06wlLxNlmrgXDIyItP-4">
          <mxGeometry relative="1" as="geometry" />
        </mxCell>
        <mxCell id="CX06wlLxNlmrgXDIyItP-19" value="กำหนดตัวแปร data" style="rounded=0;whiteSpace=wrap;html=1;" vertex="1" parent="1">
          <mxGeometry x="-670" y="-960" width="160" height="40" as="geometry" />
        </mxCell>
        <mxCell id="CX06wlLxNlmrgXDIyItP-20" value="End Print" style="shape=process;whiteSpace=wrap;html=1;backgroundOutline=1;" vertex="1" parent="1">
          <mxGeometry x="-357.5" y="-590" width="120" height="50" as="geometry" />
        </mxCell>
        <mxCell id="CX06wlLxNlmrgXDIyItP-21" value="&lt;font data-font-src=&quot;https://fonts.googleapis.com/css?family=Sarabun&quot; face=&quot;Sarabun&quot;&gt;End&lt;/font&gt;" style="ellipse;whiteSpace=wrap;html=1;" vertex="1" parent="1">
          <mxGeometry x="-655.0000000000001" y="-565" width="130" height="30" as="geometry" />
        </mxCell>
        <mxCell id="CX06wlLxNlmrgXDIyItP-26" value="" style="edgeStyle=orthogonalEdgeStyle;rounded=0;orthogonalLoop=1;jettySize=auto;html=1;" edge="1" parent="1" source="CX06wlLxNlmrgXDIyItP-27" target="CX06wlLxNlmrgXDIyItP-31">
          <mxGeometry relative="1" as="geometry" />
        </mxCell>
        <mxCell id="CX06wlLxNlmrgXDIyItP-27" value="กำหนดตัวแปร result" style="shape=label;whiteSpace=wrap;html=1;fixedSize=1;rounded=0;" vertex="1" parent="1">
          <mxGeometry x="-380" y="-880" width="165" height="40" as="geometry" />
        </mxCell>
        <mxCell id="CX06wlLxNlmrgXDIyItP-40" value="" style="edgeStyle=orthogonalEdgeStyle;rounded=0;orthogonalLoop=1;jettySize=auto;html=1;" edge="1" parent="1" source="CX06wlLxNlmrgXDIyItP-29" target="CX06wlLxNlmrgXDIyItP-39">
          <mxGeometry relative="1" as="geometry" />
        </mxCell>
        <mxCell id="CX06wlLxNlmrgXDIyItP-29" value="คำนวนหาเลขอนุกรม" style="shape=label;whiteSpace=wrap;html=1;fixedSize=1;rounded=0;" vertex="1" parent="1">
          <mxGeometry x="-380" y="-740" width="165" height="40" as="geometry" />
        </mxCell>
        <mxCell id="CX06wlLxNlmrgXDIyItP-30" value="" style="edgeStyle=orthogonalEdgeStyle;rounded=0;orthogonalLoop=1;jettySize=auto;html=1;" edge="1" parent="1" source="CX06wlLxNlmrgXDIyItP-31" target="CX06wlLxNlmrgXDIyItP-29">
          <mxGeometry relative="1" as="geometry" />
        </mxCell>
        <mxCell id="CX06wlLxNlmrgXDIyItP-31" value="กำหนดตัวแปร cal" style="shape=label;whiteSpace=wrap;html=1;fixedSize=1;rounded=0;" vertex="1" parent="1">
          <mxGeometry x="-380" y="-810" width="165" height="40" as="geometry" />
        </mxCell>
        <mxCell id="CX06wlLxNlmrgXDIyItP-41" value="" style="edgeStyle=orthogonalEdgeStyle;rounded=0;orthogonalLoop=1;jettySize=auto;html=1;" edge="1" parent="1" source="CX06wlLxNlmrgXDIyItP-39" target="CX06wlLxNlmrgXDIyItP-20">
          <mxGeometry relative="1" as="geometry" />
        </mxCell>
        <mxCell id="CX06wlLxNlmrgXDIyItP-39" value="ส่งค่าออกที่ตัวแปร Sum" style="shape=label;whiteSpace=wrap;html=1;fixedSize=1;rounded=0;" vertex="1" parent="1">
          <mxGeometry x="-380" y="-670" width="165" height="40" as="geometry" />
        </mxCell>
        <mxCell id="CX06wlLxNlmrgXDIyItP-44" value="" style="edgeStyle=orthogonalEdgeStyle;rounded=0;orthogonalLoop=1;jettySize=auto;html=1;" edge="1" parent="1" source="CX06wlLxNlmrgXDIyItP-42" target="CX06wlLxNlmrgXDIyItP-14">
          <mxGeometry relative="1" as="geometry" />
        </mxCell>
        <mxCell id="CX06wlLxNlmrgXDIyItP-42" value="cal" style="shape=process;whiteSpace=wrap;html=1;backgroundOutline=1;" vertex="1" parent="1">
          <mxGeometry x="-650" y="-750" width="120" height="50" as="geometry" />
        </mxCell>
      </root>
    </mxGraphModel>
  </diagram>
</mxfile>
